<svg width="718" height="597" viewBox="0 0 718 597" fill="none" xmlns="http://www.w3.org/2000/svg">
<g id="undraw_home_screen_re_640d 1" clip-path="url(#clip0_1_2)">
<path id="Vector" d="M371.126 0H162.583C130.148 0 103.855 26.2936 103.855 58.7284V535.272C103.855 567.706 130.148 594 162.583 594H371.126C403.561 594 429.855 567.706 429.855 535.272V58.7284C429.855 26.2936 403.561 0 371.126 0Z" fill="#3F3D56"/>
<path id="Vector_2" d="M424.355 58.7323V535.272C424.339 549.385 418.725 562.915 408.746 572.894C398.767 582.873 385.238 588.486 371.125 588.502H162.585C148.473 588.486 134.943 582.873 124.964 572.894C114.985 562.915 109.372 549.385 109.355 535.272V58.7323C109.372 44.6199 114.985 31.0901 124.964 21.1111C134.943 11.1321 148.473 5.51866 162.585 5.50232H189.855V14.9223C189.855 19.1869 191.55 23.2768 194.565 26.2923C197.581 29.3079 201.671 31.0021 205.935 31.0023H327.775C332.04 31.0021 336.13 29.3079 339.145 26.2923C342.161 23.2768 343.855 19.1869 343.855 14.9223V5.50232H371.125C385.238 5.51866 398.767 11.1321 408.746 21.1111C418.725 31.0901 424.339 44.6199 424.355 58.7323Z" fill="white"/>
<path id="Vector_3" d="M335.135 262.123C323.046 256.673 309.57 269.01 318.538 280.554C288.241 308.15 243.254 317.861 204.088 306.317C203.122 308.646 202.106 310.95 201.066 313.254C185.502 347.722 163.208 378.734 135.493 404.466C171.983 374.12 216.945 399.76 255.615 409.743C258.247 410.193 260.69 411.401 262.647 413.217C264.603 415.034 265.988 417.381 266.632 419.973C267.276 422.564 267.151 425.286 266.272 427.807C265.394 430.328 263.799 432.539 261.685 434.169C256.759 432.345 251.664 431.017 246.474 430.205C244.026 429.833 241.522 430.229 239.308 431.338C237.094 432.448 235.278 434.216 234.11 436.4C232.942 438.583 232.48 441.076 232.786 443.533C233.093 445.99 234.153 448.292 235.822 450.122C195.319 469.544 144.931 462.385 110.175 434.491V417.918C146.964 389.67 176.308 352.877 195.666 310.727C202.47 295.923 207.974 280.556 212.115 264.798C216.64 247.565 219.428 229.921 220.438 212.132C213.774 192.487 214.889 169.424 225.987 151.587C230.57 159.911 243.774 162.066 245.161 150.522C245.458 145.865 245.681 141.208 245.954 136.575C295.722 132.735 287.225 202.421 226.334 213.321C225.147 231.22 222.243 248.965 217.664 266.309C217.243 268.044 216.772 269.753 216.276 271.462C227.404 256.259 241.982 243.914 258.811 235.443C274.888 227.912 293.617 226.302 311.478 223.403C333.203 219.861 348.587 244.683 335.135 262.123Z" fill="#F2F2F2"/>
<path id="Vector_4" d="M102.355 120.5C101.294 120.499 100.278 120.077 99.5277 119.327C98.7778 118.577 98.356 117.561 98.3548 116.5V108.5C98.3548 107.439 98.7762 106.422 99.5263 105.672C100.276 104.921 101.294 104.5 102.355 104.5C103.416 104.5 104.433 104.921 105.183 105.672C105.933 106.422 106.355 107.439 106.355 108.5V116.5C106.354 117.561 105.932 118.577 105.182 119.327C104.432 120.077 103.415 120.499 102.355 120.5Z" fill="#3F3D56"/>
<path id="Vector_5" d="M102.355 161.521C101.294 161.52 100.278 161.098 99.5277 160.349C98.7778 159.599 98.356 158.582 98.3548 157.521V135.5C98.3548 134.439 98.7762 133.422 99.5263 132.672C100.276 131.921 101.294 131.5 102.355 131.5C103.416 131.5 104.433 131.921 105.183 132.672C105.933 133.422 106.355 134.439 106.355 135.5V157.521C106.354 158.582 105.932 159.599 105.182 160.349C104.432 161.098 103.415 161.52 102.355 161.521Z" fill="#3F3D56"/>
<path id="Vector_6" d="M102.355 194.5C101.294 194.499 100.278 194.077 99.5277 193.327C98.7778 192.577 98.356 191.561 98.3548 190.5V168.479C98.3548 167.418 98.7762 166.4 99.5263 165.65C100.276 164.9 101.294 164.479 102.355 164.479C103.416 164.479 104.433 164.9 105.183 165.65C105.933 166.4 106.355 167.418 106.355 168.479V190.5C106.354 191.561 105.932 192.577 105.182 193.327C104.432 194.077 103.415 194.499 102.355 194.5Z" fill="#3F3D56"/>
<path id="Vector_7" d="M430.355 176.5C429.294 176.499 428.278 176.077 427.528 175.327C426.778 174.577 426.356 173.56 426.355 172.5V118.767C426.355 117.706 426.776 116.688 427.526 115.938C428.276 115.188 429.294 114.767 430.355 114.767C431.416 114.767 432.433 115.188 433.183 115.938C433.933 116.688 434.355 117.706 434.355 118.767V172.5C434.354 173.56 433.932 174.577 433.182 175.327C432.432 176.077 431.415 176.499 430.355 176.5Z" fill="#3F3D56"/>
<path id="Vector_8" d="M275.447 18.3458H244.447C243.784 18.3458 243.148 18.0824 242.68 17.6136C242.211 17.1447 241.947 16.5088 241.947 15.8458C241.947 15.1828 242.211 14.5469 242.68 14.078C243.148 13.6092 243.784 13.3458 244.447 13.3458H275.447C276.11 13.3458 276.746 13.6092 277.215 14.078C277.684 14.5469 277.947 15.1828 277.947 15.8458C277.947 16.5088 277.684 17.1447 277.215 17.6136C276.746 18.0824 276.11 18.3458 275.447 18.3458Z" fill="white"/>
<path id="Vector_9" d="M291.447 17.8458C292.552 17.8458 293.447 16.9504 293.447 15.8458C293.447 14.7412 292.552 13.8458 291.447 13.8458C290.343 13.8458 289.447 14.7412 289.447 15.8458C289.447 16.9504 290.343 17.8458 291.447 17.8458Z" fill="white"/>
<path id="Vector_10" d="M198.721 549.53H163.989C159.446 549.525 155.091 547.718 151.879 544.506C148.667 541.294 146.86 536.939 146.855 532.396V497.664C146.86 493.121 148.667 488.766 151.879 485.554C155.091 482.342 159.446 480.535 163.989 480.53H198.721C203.264 480.535 207.619 482.342 210.831 485.554C214.043 488.766 215.85 493.121 215.855 497.664V532.396C215.85 536.939 214.043 541.294 210.831 544.506C207.619 547.718 203.264 549.525 198.721 549.53Z" fill="#6C63FF"/>
<path id="Vector_11" d="M284.221 550.03H249.489C244.946 550.025 240.591 548.218 237.379 545.006C234.167 541.794 232.36 537.439 232.355 532.896V498.164C232.36 493.621 234.167 489.266 237.379 486.054C240.591 482.842 244.946 481.035 249.489 481.03H284.221C288.764 481.035 293.119 482.842 296.331 486.054C299.543 489.266 301.35 493.621 301.355 498.164V532.896C301.35 537.439 299.543 541.794 296.331 545.006C293.119 548.218 288.764 550.025 284.221 550.03Z" fill="#E6E6E6"/>
<path id="Vector_12" d="M369.721 550.53H334.989C330.446 550.525 326.091 548.718 322.879 545.506C319.667 542.294 317.86 537.939 317.855 533.396V498.664C317.86 494.121 319.667 489.766 322.879 486.554C326.091 483.342 330.446 481.535 334.989 481.53H369.721C374.264 481.535 378.619 483.342 381.831 486.554C385.043 489.766 386.85 494.121 386.855 498.664V533.396C386.85 537.939 385.043 542.294 381.831 545.506C378.619 548.718 374.264 550.525 369.721 550.53Z" fill="#E6E6E6"/>
<path id="Vector_13" d="M248.855 452.03C251.616 452.03 253.855 449.791 253.855 447.03C253.855 444.269 251.616 442.03 248.855 442.03C246.093 442.03 243.855 444.269 243.855 447.03C243.855 449.791 246.093 452.03 248.855 452.03Z" fill="#CCCCCC"/>
<path id="Vector_14" d="M266.855 452.03C269.616 452.03 271.855 449.791 271.855 447.03C271.855 444.269 269.616 442.03 266.855 442.03C264.093 442.03 261.855 444.269 261.855 447.03C261.855 449.791 264.093 452.03 266.855 452.03Z" fill="#E6E6E6"/>
<path id="Vector_15" d="M284.855 452.03C287.616 452.03 289.855 449.791 289.855 447.03C289.855 444.269 287.616 442.03 284.855 442.03C282.093 442.03 279.855 444.269 279.855 447.03C279.855 449.791 282.093 452.03 284.855 452.03Z" fill="#E6E6E6"/>
<path id="Vector_16" d="M386.441 561.03H147.536C142.088 561.024 136.866 558.857 133.014 555.005C129.162 551.153 126.995 545.931 126.989 540.483V489.577C126.995 484.129 129.162 478.907 133.014 475.055C136.866 471.203 142.088 469.036 147.536 469.03H386.441C391.889 469.036 397.111 471.203 400.963 475.055C404.815 478.907 406.982 484.129 406.989 489.577V540.483C406.982 545.931 404.815 551.153 400.963 555.005C397.111 558.857 391.889 561.024 386.441 561.03ZM147.536 471.03C142.619 471.036 137.904 472.991 134.427 476.468C130.95 479.945 128.994 484.66 128.989 489.577V540.483C128.994 545.4 130.95 550.115 134.427 553.592C137.904 557.069 142.619 559.025 147.536 559.03H386.441C391.359 559.025 396.073 557.069 399.55 553.592C403.027 550.115 404.983 545.4 404.989 540.483V489.577C404.983 484.66 403.027 479.945 399.55 476.468C396.073 472.991 391.359 471.036 386.441 471.03H147.536Z" fill="#E6E6E6"/>
<path id="Vector_17" d="M594.12 129.687C592.126 129.996 590.332 131.07 589.119 132.682C587.906 134.294 587.369 136.315 587.624 138.317C587.682 138.723 587.773 139.123 587.898 139.514L566.4 155.878L570.866 169.708L597.891 144.107C599.472 143.466 600.796 142.321 601.657 140.848C602.518 139.376 602.868 137.66 602.651 135.968C602.519 135.007 602.198 134.081 601.708 133.243C601.217 132.406 600.567 131.673 599.793 131.087C599.019 130.501 598.138 130.073 597.199 129.827C596.26 129.582 595.282 129.524 594.32 129.656C594.253 129.665 594.186 129.676 594.12 129.687Z" fill="#FFB6B6"/>
<path id="Vector_18" d="M445.822 205.559C445.96 208.947 447.417 212.147 449.881 214.477C452.345 216.807 455.622 218.082 459.013 218.03L499.602 217.409L550.928 193.605C550.928 193.605 567.666 179.398 572.332 179.063C576.999 178.729 579.484 183.071 578.427 179.106C577.369 175.142 575.97 172.488 579.556 172.859C583.143 173.229 582.572 165.913 583.365 163.146C584.159 160.378 573.25 150.391 573.25 150.391C573.25 150.391 565.388 150.543 564.873 151.576C564.359 152.609 566.149 155.212 561.925 155.101C557.7 154.989 554.474 155.167 554.342 157.129C554.21 159.09 554.518 160.62 552.176 162.139C549.835 163.658 539.268 171.49 539.268 171.49L455.657 192.415C452.757 193.141 450.195 194.844 448.403 197.238C446.612 199.632 445.7 202.571 445.822 205.559Z" fill="#3F3D56"/>
<path id="Vector_19" d="M467.555 574.794H478.593L483.845 532.22H467.555V574.794Z" fill="#FFB6B6"/>
<path id="Vector_20" d="M463.953 567.234L481.587 566.182V573.737L498.352 585.316C499.18 585.887 499.804 586.709 500.132 587.66C500.46 588.612 500.475 589.643 500.176 590.604C499.876 591.564 499.278 592.404 498.467 593C497.656 593.597 496.676 593.918 495.67 593.918H474.676L471.058 586.445L469.645 593.918H461.729L463.953 567.234Z" fill="#2F2E41"/>
<path id="Vector_21" d="M485.989 302.03L491.989 265.03L449.989 255.03V293.361L485.989 302.03Z" fill="#FFB6B6"/>
<path id="Vector_22" d="M433.489 337.53L454.023 471.007C454.023 471.007 452.815 529.018 462.152 542.274L464.489 556.53H485.556C485.556 556.53 485.168 547.774 487.328 542.652C489.489 537.53 492.489 540.924 489.489 536.227C486.489 531.53 486.168 532.05 487.328 528.29C488.489 524.53 489.166 354.054 489.166 354.054L433.489 337.53Z" fill="#2F2E41"/>
<path id="Vector_23" d="M445.996 509.241L452.392 518.236L490.133 497.847L480.693 484.57L445.996 509.241Z" fill="#FFB6B6"/>
<path id="Vector_24" d="M450.07 501.924L461.146 515.686L454.989 520.064L455.267 540.437C455.281 541.443 454.973 542.427 454.388 543.246C453.803 544.064 452.971 544.675 452.015 544.987C451.058 545.3 450.027 545.299 449.071 544.984C448.115 544.669 447.285 544.056 446.702 543.236L434.537 526.126L438.53 518.847L431.621 522.026L427.034 515.575L450.07 501.924Z" fill="#2F2E41"/>
<path id="Vector_25" d="M447.989 271.03L447.702 286.517C447.702 286.517 409.745 319.826 438.367 360.428C438.367 360.428 441.973 372.117 446.981 371.574C451.989 371.03 454.539 373.824 453.264 376.427C451.989 379.03 500.65 410.699 500.65 410.699C500.65 410.699 468.577 481.412 460.989 497.03L465.989 513.03C465.989 513.03 463.34 519.219 467.414 516.875C471.489 514.53 469.484 514.211 473.986 513.37C478.489 512.53 484.038 510.601 483.763 509.565C483.489 508.53 539.748 421.484 539.748 421.484C539.748 421.484 553.229 407.144 543.359 390.337C541.989 390.03 541.953 390.337 541.953 390.337L493.705 335.394L487.989 299.03L447.989 271.03Z" fill="#2F2E41"/>
<path id="Vector_26" d="M491.394 171.755L467.09 160.365L459.814 173.025C459.814 173.025 440.272 200.912 439.989 221.03C439.705 241.148 443.173 247.131 443.173 247.131C443.173 247.131 434.748 253.43 438.96 257.28C443.173 261.131 452.5 262.792 445.337 264.461C438.173 266.131 439.989 283.03 447.989 286.03C455.989 289.03 498.953 289.004 498.953 289.004C498.567 287.694 498.538 286.304 498.87 284.979C499.203 283.654 499.884 282.442 500.843 281.469C504.173 278.131 507.173 280.526 504.173 275.329C501.173 270.131 496.173 273.131 500.173 266.131C504.173 259.131 504.172 257.039 504.172 257.039C504.172 257.039 513.914 240.238 500.044 224.684C486.173 209.131 499.924 223.618 499.924 223.618L490.007 190.383L491.394 171.755Z" fill="#3F3D56"/>
<path id="Vector_27" d="M589.855 270.03H555.122C550.58 270.025 546.225 268.218 543.013 265.006C539.8 261.794 537.994 257.439 537.989 252.896V218.164C537.994 213.621 539.8 209.266 543.013 206.054C546.225 202.842 550.58 201.035 555.122 201.03H589.855C594.397 201.035 598.752 202.842 601.965 206.054C605.177 209.266 606.984 213.621 606.989 218.164V252.896C606.984 257.439 605.177 261.794 601.965 265.006C598.752 268.218 594.397 270.025 589.855 270.03Z" fill="#6C63FF"/>
<path id="Kutucuk" d="M607.855 138.03H573.122C568.58 138.025 564.225 136.218 561.013 133.006C557.8 129.794 555.994 125.439 555.989 120.896V86.1638C555.994 81.6212 557.8 77.2662 561.013 74.054C564.225 70.8419 568.58 69.0351 573.122 69.0301H607.855C612.397 69.0351 616.752 70.8419 619.965 74.054C623.177 77.2662 624.984 81.6212 624.989 86.1638V120.896C624.984 125.439 623.177 129.794 619.965 133.006C616.752 136.218 612.397 138.025 607.855 138.03Z" fill="#6C63FF"/>
<path id="Path 9" d="M513.864 158.507L513.885 158.504C515.007 158.371 516.029 157.798 516.728 156.911C517.427 156.025 517.744 154.897 517.611 153.775L514.828 130.182C514.334 125.955 512.995 121.87 510.89 118.171C506.771 110.953 500.026 105.602 492.06 103.235C487.948 102.018 483.632 101.646 479.373 102.142C461.946 104.17 456.466 109.062 451.491 137.367C446.515 165.672 454.278 160.996 454.278 160.996C454.344 161.565 454.525 162.114 454.808 162.612C455.363 163.582 456.271 164.301 457.343 164.617C457.893 164.779 458.47 164.828 459.04 164.763C480.329 165.574 501.857 166.616 513.868 158.506L513.864 158.507Z" fill="#2F2E41"/>
<path id="Ellipse 1" d="M467.93 127.51C466.198 131.803 465.777 136.512 466.72 141.043C467.663 145.575 469.928 149.725 473.228 152.97C476.528 156.216 480.716 158.41 485.263 159.276C489.81 160.143 494.512 159.642 498.774 157.838C501.598 156.654 504.158 154.921 506.307 152.739C508.456 150.558 510.151 147.972 511.294 145.131C513.021 140.841 513.439 136.136 512.495 131.608C511.552 127.081 509.289 122.935 505.992 119.692C502.695 116.449 498.512 114.254 493.97 113.385C489.428 112.517 484.73 113.012 480.469 114.809C477.643 115.991 475.079 117.722 472.926 119.903C470.774 122.083 469.075 124.668 467.93 127.51Z" fill="#FFB6B6"/>
<path id="Path 10" d="M522.538 131.22C522.147 127.876 521.087 124.646 519.423 121.72C517.55 114.092 513.834 107.615 504.533 109.911C501.302 108.956 497.911 108.66 494.563 109.042L489.838 109.576C489.785 109.582 489.732 109.588 489.679 109.594C483.076 110.377 477.054 113.751 472.939 118.974C468.823 124.197 466.951 130.841 467.734 137.444L467.79 137.917L477.784 136.779L480.068 126.861L481.873 136.315L487.036 135.729L488.187 130.725L489.099 135.492C498.021 140.497 509.479 138.408 522.59 131.694L522.538 131.22Z" fill="#2F2E41"/>
<path id="Path 13" d="M495.921 159.869C496.167 160.614 496.2 161.412 496.015 162.174C495.923 162.564 495.777 162.938 495.581 163.287C495.413 163.585 495.211 163.862 494.978 164.111C494.288 164.85 493.357 165.318 492.353 165.432C492.29 165.439 492.227 165.444 492.165 165.449C492.102 165.453 492.039 165.456 491.975 165.458C491.912 165.46 491.848 165.46 491.784 165.459C491.721 165.458 491.657 165.455 491.592 165.451L487.971 165.225L481.857 155.368L482.984 164.924L466.522 163.924L461.738 123.37L488.777 120.312L488.201 121.167C486.291 124.032 485.208 127.369 485.071 130.809C484.951 134.293 485.428 137.771 486.482 141.093C487.522 144.457 488.883 147.714 490.546 150.818C492.005 153.57 493.62 156.236 495.385 158.802C495.613 159.131 495.793 159.49 495.921 159.869Z" fill="#2F2E41"/>
<path id="Vector_28" d="M559.568 197.308C557.691 198.048 556.177 199.491 555.349 201.33C554.52 203.17 554.441 205.26 555.13 207.156C555.276 207.539 555.453 207.909 555.66 208.263L538.29 228.956L545.689 241.465L566.42 210.545C567.821 209.573 568.86 208.164 569.376 206.538C569.893 204.912 569.856 203.162 569.272 201.559C568.932 200.65 568.415 199.817 567.752 199.108C567.09 198.399 566.294 197.827 565.41 197.426C564.527 197.024 563.573 196.801 562.603 196.768C561.633 196.735 560.666 196.893 559.757 197.234C559.694 197.258 559.631 197.283 559.568 197.308Z" fill="#FFB6B6"/>
<path id="Vector_29" d="M468.593 193.157C466.843 193.948 465.284 195.106 464.022 196.553C462.76 198 461.824 199.702 461.278 201.543C460.733 203.384 460.59 205.321 460.859 207.222C461.129 209.123 461.805 210.944 462.841 212.56L479.489 238.53L518.489 273.53C518.489 273.53 550.489 250.53 551.489 242.53C552.489 234.53 549.489 232.53 552.489 234.53C555.489 236.53 558.489 235.53 557.489 234.53C556.489 233.53 556.881 233.467 557.685 231.999C558.489 230.53 561.489 223.53 561.489 223.53L550.863 213.03C550.863 213.03 539.489 218.53 538.489 221.53C537.489 224.53 541.489 223.53 537.489 224.53C533.489 225.53 528.145 220.995 532.317 225.762C536.489 230.53 536.145 232.601 532.317 232.565C528.489 232.53 521.489 242.53 521.489 242.53L484.484 196.918C482.623 194.624 480.054 193.011 477.179 192.33C474.305 191.65 471.285 191.941 468.593 193.157Z" fill="#3F3D56"/>
<path id="Vector_30" d="M587.752 570.04C588.482 570.067 589.203 569.868 589.817 569.472C590.43 569.075 590.907 568.499 591.183 567.822C591.458 567.145 591.519 566.4 591.357 565.688C591.195 564.975 590.817 564.33 590.276 563.839C590.183 563.483 590.116 563.227 590.023 562.87C590.704 561.089 591.902 559.552 593.463 558.456C595.024 557.36 596.877 556.756 598.783 556.719C600.69 556.683 602.564 557.217 604.166 558.253C605.767 559.289 607.022 560.78 607.771 562.534C612.089 572.38 617.652 582.562 615.038 593.477C632.632 555.249 626.074 507.969 599.227 475.676C591.854 471.706 585.84 464.583 584.213 456.262C587.855 457.458 592.353 454.462 589.587 450.664C588.39 449.214 587.182 447.775 585.985 446.325C599.635 431.507 616.285 454.432 601.295 474.399C606.32 480.577 610.685 487.263 614.319 494.349C613.424 486.797 614.334 479.14 616.975 472.008C619.657 465.359 624.75 459.732 629.226 453.964C634.669 446.935 646.039 450.046 646.865 458.891C641.796 460.611 641.206 467.962 647.032 468.912C645.665 485.395 635.05 500.632 620.3 507.996C625.918 523.299 628.211 539.623 627.025 555.881C629.46 536.87 649.796 532.069 663.969 524.387C664.87 523.797 665.923 523.482 667 523.48C668.078 523.479 669.132 523.791 670.035 524.378C670.938 524.965 671.65 525.803 672.085 526.788C672.52 527.773 672.659 528.864 672.485 529.927C670.527 530.745 668.654 531.756 666.896 532.944C666.072 533.51 665.443 534.316 665.095 535.253C664.747 536.19 664.698 537.212 664.954 538.178C665.209 539.144 665.757 540.007 666.523 540.649C667.289 541.292 668.234 541.681 669.23 541.765C662.219 559.605 643.768 571.715 624.701 571.829C622.945 579.809 620.364 587.584 617 595.03L588.702 595.3C588.597 594.986 588.503 594.662 588.409 594.349C591.029 594.489 593.658 594.307 596.234 593.808C589.226 585.669 583.828 581.533 587.752 570.04Z" fill="#F2F2F2"/>
<path id="Vector_31" d="M2.05258e-05 595.139C-0.000445544 595.296 0.0300241 595.451 0.0896659 595.595C0.149308 595.74 0.236954 595.871 0.347555 595.982C0.458156 596.092 0.589526 596.18 0.734121 596.24C0.878716 596.299 1.03368 596.33 1.19008 596.329H716.48C716.796 596.329 717.098 596.204 717.322 595.981C717.545 595.757 717.67 595.455 717.67 595.139C717.67 594.824 717.545 594.521 717.322 594.298C717.098 594.075 716.796 593.949 716.48 593.949H1.19002C1.03362 593.949 0.878676 593.979 0.73409 594.039C0.589505 594.099 0.458133 594.186 0.347539 594.297C0.236946 594.407 0.149306 594.539 0.0896659 594.683C0.030026 594.828 -0.000440196 594.983 2.05258e-05 595.139Z" fill="#CCCCCC"/>
<path id="Vector_32" d="M177.941 29.0731H150.941C149.615 29.0731 148.343 28.5463 147.405 27.6086C146.467 26.6709 145.941 25.3991 145.941 24.0731C145.941 22.747 146.467 21.4752 147.405 20.5375C148.343 19.5998 149.615 19.0731 150.941 19.0731H177.941C179.267 19.0731 180.539 19.5998 181.476 20.5375C182.414 21.4752 182.941 22.747 182.941 24.0731C182.941 25.3991 182.414 26.6709 181.476 27.6086C180.539 28.5463 179.267 29.0731 177.941 29.0731Z" fill="#E6E6E6"/>
<path id="Vector_33" d="M354.941 28.5731C357.426 28.5731 359.441 26.5583 359.441 24.0731C359.441 21.5878 357.426 19.5731 354.941 19.5731C352.455 19.5731 350.441 21.5878 350.441 24.0731C350.441 26.5583 352.455 28.5731 354.941 28.5731Z" fill="#E6E6E6"/>
<path id="Vector_34" d="M368.941 28.5731C371.426 28.5731 373.441 26.5583 373.441 24.0731C373.441 21.5878 371.426 19.5731 368.941 19.5731C366.455 19.5731 364.441 21.5878 364.441 24.0731C364.441 26.5583 366.455 28.5731 368.941 28.5731Z" fill="#E6E6E6"/>
<path id="Vector_35" d="M382.941 28.5731C385.426 28.5731 387.441 26.5583 387.441 24.0731C387.441 21.5878 385.426 19.5731 382.941 19.5731C380.455 19.5731 378.441 21.5878 378.441 24.0731C378.441 26.5583 380.455 28.5731 382.941 28.5731Z" fill="#E6E6E6"/>
<path id="Vector_36" d="M209.441 196.573C216.068 196.573 221.441 191.2 221.441 184.573C221.441 177.946 216.068 172.573 209.441 172.573C202.813 172.573 197.441 177.946 197.441 184.573C197.441 191.2 202.813 196.573 209.441 196.573Z" fill="#CCCCCC"/>
<path id="Vector_37" d="M296.441 500.573C303.068 500.573 308.441 495.2 308.441 488.573C308.441 481.946 303.068 476.573 296.441 476.573C289.813 476.573 284.441 481.946 284.441 488.573C284.441 495.2 289.813 500.573 296.441 500.573Z" fill="#CCCCCC"/>
<g id="Kutucuklar">
<path id="Vector_38" d="M198.721 150.53H163.988C159.181 150.524 154.571 148.612 151.172 145.213C147.772 141.813 145.86 137.204 145.855 132.396V97.6636C145.86 92.8559 147.772 88.2466 151.172 84.8471C154.571 81.4475 159.181 79.5352 163.988 79.5298H198.721C203.528 79.5352 208.138 81.4475 211.537 84.8471C214.937 88.2466 216.849 92.8559 216.855 97.6636V132.396C216.849 137.204 214.937 141.813 211.537 145.213C208.138 148.612 203.528 150.524 198.721 150.53ZM163.988 81.5298C159.711 81.5347 155.61 83.2361 152.585 86.2607C149.561 89.2853 147.859 93.3862 147.855 97.6636V132.396C147.859 136.673 149.561 140.774 152.585 143.799C155.61 146.824 159.711 148.525 163.988 148.53H198.721C202.998 148.525 207.099 146.824 210.124 143.799C213.148 140.774 214.85 136.673 214.855 132.396V97.6636C214.85 93.3861 213.148 89.2853 210.124 86.2607C207.099 83.2361 202.998 81.5347 198.721 81.5298L163.988 81.5298Z" fill="#E6E6E6"/>
<path id="Vector_39" d="M284.221 151.03H249.488C244.681 151.024 240.071 149.112 236.672 145.713C233.272 142.313 231.36 137.704 231.355 132.896V98.1636C231.36 93.3559 233.272 88.7466 236.672 85.3471C240.071 81.9475 244.681 80.0352 249.488 80.0298H284.221C289.028 80.0352 293.638 81.9475 297.037 85.3471C300.437 88.7466 302.349 93.3559 302.355 98.1636V132.896C302.349 137.704 300.437 142.313 297.037 145.713C293.638 149.112 289.028 151.024 284.221 151.03ZM249.488 82.0298C245.211 82.0347 241.11 83.7361 238.085 86.7607C235.061 89.7853 233.359 93.8862 233.355 98.1636V132.896C233.359 137.173 235.061 141.274 238.085 144.299C241.11 147.324 245.211 149.025 249.488 149.03H284.221C288.498 149.025 292.599 147.324 295.624 144.299C298.648 141.274 300.35 137.173 300.355 132.896V98.1636C300.35 93.8861 298.648 89.7853 295.624 86.7607C292.599 83.7361 288.498 82.0347 284.221 82.0298L249.488 82.0298Z" fill="#E6E6E6"/>
<path id="Vector_40" d="M369.721 151.53H334.988C330.181 151.524 325.571 149.612 322.172 146.213C318.772 142.813 316.86 138.204 316.855 133.396V98.6636C316.86 93.8559 318.772 89.2466 322.172 85.8471C325.571 82.4475 330.181 80.5352 334.988 80.5298H369.721C374.528 80.5352 379.138 82.4475 382.537 85.8471C385.937 89.2466 387.849 93.8559 387.855 98.6636V133.396C387.849 138.204 385.937 142.813 382.537 146.213C379.138 149.612 374.528 151.524 369.721 151.53ZM334.988 82.5298C330.711 82.5347 326.61 84.2361 323.585 87.2607C320.561 90.2853 318.859 94.3862 318.855 98.6636V133.396C318.859 137.673 320.561 141.774 323.585 144.799C326.61 147.824 330.711 149.525 334.988 149.53H369.721C373.998 149.525 378.099 147.824 381.124 144.799C384.148 141.774 385.85 137.673 385.855 133.396V98.6636C385.85 94.3861 384.148 90.2852 381.124 87.2606C378.099 84.236 373.998 82.5346 369.721 82.5298L334.988 82.5298Z" fill="#E6E6E6"/>
<path id="Vector_41" d="M198.721 249.53H163.988C159.181 249.524 154.571 247.612 151.172 244.213C147.772 240.813 145.86 236.204 145.855 231.396V196.664C145.86 191.856 147.772 187.247 151.172 183.847C154.571 180.447 159.181 178.535 163.988 178.53H198.721C203.528 178.535 208.138 180.447 211.537 183.847C214.937 187.247 216.849 191.856 216.855 196.664V231.396C216.849 236.204 214.937 240.813 211.537 244.213C208.138 247.612 203.528 249.524 198.721 249.53ZM163.988 180.53C159.711 180.535 155.61 182.236 152.585 185.261C149.561 188.285 147.859 192.386 147.855 196.664V231.396C147.859 235.673 149.561 239.774 152.585 242.799C155.61 245.824 159.711 247.525 163.988 247.53H198.721C202.998 247.525 207.099 245.824 210.124 242.799C213.148 239.774 214.85 235.673 214.855 231.396V196.664C214.85 192.386 213.148 188.285 210.124 185.261C207.099 182.236 202.998 180.535 198.721 180.53L163.988 180.53Z" fill="#E6E6E6"/>
<path id="Vector_42" d="M284.221 250.03H249.488C244.681 250.024 240.071 248.112 236.672 244.713C233.272 241.313 231.36 236.704 231.355 231.896V197.164C231.36 192.356 233.272 187.747 236.672 184.347C240.071 180.947 244.681 179.035 249.488 179.03H284.221C289.028 179.035 293.638 180.947 297.037 184.347C300.437 187.747 302.349 192.356 302.355 197.164V231.896C302.349 236.704 300.437 241.313 297.037 244.713C293.638 248.112 289.028 250.024 284.221 250.03ZM249.488 181.03C245.211 181.035 241.11 182.736 238.085 185.761C235.061 188.785 233.359 192.886 233.355 197.164V231.896C233.359 236.173 235.061 240.274 238.085 243.299C241.11 246.324 245.211 248.025 249.488 248.03H284.221C288.498 248.025 292.599 246.324 295.624 243.299C298.648 240.274 300.35 236.173 300.355 231.896V197.164C300.35 192.886 298.648 188.785 295.624 185.761C292.599 182.736 288.498 181.035 284.221 181.03L249.488 181.03Z" fill="#E6E6E6"/>
<path id="Vector_43" d="M369.721 250.53H334.988C330.181 250.524 325.571 248.612 322.172 245.213C318.772 241.813 316.86 237.204 316.855 232.396V197.664C316.86 192.856 318.772 188.247 322.172 184.847C325.571 181.447 330.181 179.535 334.988 179.53H369.721C374.528 179.535 379.138 181.447 382.537 184.847C385.937 188.247 387.849 192.856 387.855 197.664V232.396C387.849 237.204 385.937 241.813 382.537 245.213C379.138 248.612 374.528 250.524 369.721 250.53ZM334.988 181.53C330.711 181.535 326.61 183.236 323.585 186.261C320.561 189.285 318.859 193.386 318.855 197.664V232.396C318.859 236.673 320.561 240.774 323.585 243.799C326.61 246.824 330.711 248.525 334.988 248.53H369.721C373.998 248.525 378.099 246.824 381.124 243.799C384.148 240.774 385.85 236.673 385.855 232.396V197.664C385.85 193.386 384.148 189.285 381.124 186.261C378.099 183.236 373.998 181.535 369.721 181.53L334.988 181.53Z" fill="#E6E6E6"/>
<path id="Vector_44" d="M198.721 348.53H163.988C159.181 348.524 154.571 346.612 151.172 343.213C147.772 339.813 145.86 335.204 145.855 330.396V295.664C145.86 290.856 147.772 286.247 151.172 282.847C154.571 279.448 159.181 277.535 163.988 277.53H198.721C203.528 277.535 208.138 279.448 211.537 282.847C214.937 286.247 216.849 290.856 216.855 295.664V330.396C216.849 335.204 214.937 339.813 211.537 343.213C208.138 346.612 203.528 348.524 198.721 348.53ZM163.988 279.53C159.711 279.535 155.61 281.236 152.585 284.261C149.561 287.285 147.859 291.386 147.855 295.664V330.396C147.859 334.673 149.561 338.774 152.585 341.799C155.61 344.824 159.711 346.525 163.988 346.53H198.721C202.998 346.525 207.099 344.824 210.124 341.799C213.148 338.774 214.85 334.673 214.855 330.396V295.664C214.85 291.386 213.148 287.285 210.124 284.261C207.099 281.236 202.998 279.535 198.721 279.53L163.988 279.53Z" fill="#E6E6E6"/>
<path id="Vector_45" d="M284.221 349.03H249.488C244.681 349.024 240.071 347.112 236.672 343.713C233.272 340.313 231.36 335.704 231.355 330.896V296.164C231.36 291.356 233.272 286.747 236.672 283.347C240.071 279.948 244.681 278.035 249.488 278.03H284.221C289.028 278.035 293.638 279.948 297.037 283.347C300.437 286.747 302.349 291.356 302.355 296.164V330.896C302.349 335.704 300.437 340.313 297.037 343.713C293.638 347.112 289.028 349.024 284.221 349.03ZM249.488 280.03C245.211 280.035 241.11 281.736 238.085 284.761C235.061 287.785 233.359 291.886 233.355 296.164V330.896C233.359 335.173 235.061 339.274 238.085 342.299C241.11 345.324 245.211 347.025 249.488 347.03H284.221C288.498 347.025 292.599 345.324 295.624 342.299C298.648 339.274 300.35 335.173 300.355 330.896V296.164C300.35 291.886 298.648 287.785 295.624 284.761C292.599 281.736 288.498 280.035 284.221 280.03L249.488 280.03Z" fill="#E6E6E6"/>
<path id="Vector_46" d="M369.721 349.53H334.988C330.181 349.524 325.571 347.612 322.172 344.213C318.772 340.813 316.86 336.204 316.855 331.396V296.664C316.86 291.856 318.772 287.247 322.172 283.847C325.571 280.448 330.181 278.535 334.988 278.53H369.721C374.528 278.535 379.138 280.448 382.537 283.847C385.937 287.247 387.849 291.856 387.855 296.664V331.396C387.849 336.204 385.937 340.813 382.537 344.213C379.138 347.612 374.528 349.524 369.721 349.53ZM334.988 280.53C330.711 280.535 326.61 282.236 323.585 285.261C320.561 288.285 318.859 292.386 318.855 296.664V331.396C318.859 335.673 320.561 339.774 323.585 342.799C326.61 345.824 330.711 347.525 334.988 347.53H369.721C373.998 347.525 378.099 345.824 381.124 342.799C384.148 339.774 385.85 335.674 385.855 331.396V296.664C385.85 292.386 384.148 288.285 381.124 285.261C378.099 282.236 373.998 280.535 369.721 280.53L334.988 280.53Z" fill="#E6E6E6"/>
</g>
<path id="Vector_47" d="M296.441 297.573C303.068 297.573 308.441 292.2 308.441 285.573C308.441 278.946 303.068 273.573 296.441 273.573C289.813 273.573 284.441 278.946 284.441 285.573C284.441 292.2 289.813 297.573 296.441 297.573Z" fill="#CCCCCC"/>
</g>
<defs>
<clipPath id="clip0_1_2">
<rect width="717.67" height="596.329" fill="white"/>
</clipPath>
</defs>
</svg>
